<?xml version="1.0" standalone="no"?>
<svg xmlns="http://www.w3.org/2000/svg" width="266.43848987811344" height="83.77734054054054" viewBox="0 0 266.43848987811344 83.77734054054054"><g fill="#f1333f" color="#f1333f" transform="translate(0 0) scale(1.642693)"><svg width="44.0" height="51.0" x="0.0" y="0.0" viewBox="0 0 44 51"><path fill="currentColor" fill-rule="evenodd" d="M22 0L0 12.571v25.143l22 12.572 21.994-12.568.006-.01V12.571L22 0zM6.354 13.778L22 4.84l15.645 8.938-4.231 2.419L22 9.678l-11.411 6.52-4.235-2.42zm17.764 10.158v-8.21L31.3 19.83v8.208l-7.182-4.101zm-11.416-4.107l7.18-4.102v8.207l-7.18 4.103v-8.208zm11.416 19.57l11.415-6.522V19.826l4.233-2.42v17.89l-15.648 8.941v-4.838zM4.233 35.296v-17.89l4.233 2.42v13.049l11.416 6.524v4.838l-15.649-8.94zm10.583-3.63l7.182-4.104 7.183 4.104L22 35.768l-7.184-4.102z"></path></svg></g><path fill="#353434" fill-rule="nonzero" d="M0 25.76L0 25.76L0 0.48Q3.24 0 6.52 0L6.52 0Q11.12 0 13.32 2.20L13.32 2.20Q15.04 3.96 15.04 6.84L15.04 6.84Q15.04 8.84 13.82 10.32Q12.60 11.80 10.60 12.28L10.60 12.28L10.60 12.32Q13.04 12.72 14.44 14.54Q15.84 16.36 15.84 19.12L15.84 19.12Q15.84 22.76 13.00 24.64L13.00 24.64Q10.56 26.28 6.52 26.28L6.52 26.28Q3.56 26.28 0 25.76ZM2.96 2.64L2.96 2.64L2.96 11.16L7.12 11.16Q9.28 11.16 10.62 10.06Q11.96 8.96 11.96 7.12L11.96 7.12Q11.96 2.36 6.44 2.36L6.44 2.36Q4.32 2.36 2.96 2.64ZM7.12 13.64L2.96 13.64L2.96 23.64Q4.64 23.88 6.88 23.88L6.88 23.88Q12.68 23.88 12.68 19.08L12.68 19.08Q12.68 16.52 11.22 15.08Q9.76 13.64 7.12 13.64L7.12 13.64ZM17.64 25.80L26.72 0.48L29.80 0.48L38.88 25.80L35.84 25.80L33.80 19.88L22.80 19.88L20.72 25.80L17.64 25.80ZM32.92 17.40L28.24 3.80L23.60 17.40L32.92 17.40ZM46.04 5.56L46.04 25.80L43.08 25.80L43.08 0.48L45.76 0.48Q49.40 5.96 58.44 21.12L58.44 21.12L58.44 0.48L61.40 0.48L61.40 25.80L58.64 25.80Q56.48 22.56 49.84 11.80L49.84 11.80Q47.04 7.24 46.04 5.56L46.04 5.56ZM84.92 2.52L84.92 2.52L83.72 4.24Q81.04 2.56 78.24 2.56L78.24 2.56Q74.40 2.56 72.20 5.72L72.20 5.72Q70.16 8.60 70.16 13.40L70.16 13.40Q70.16 18.40 72.80 21.20L72.80 21.20Q75.04 23.64 78.56 23.64L78.56 23.64Q81.44 23.64 84.04 21.76L84.04 21.76L85.24 23.56Q82.12 26.28 78.16 26.28L78.16 26.28Q72.68 26.28 69.56 22.04L69.56 22.04Q67 18.56 67 13.40L67 13.40Q67 7.64 70.12 3.72L70.12 3.72Q73.08 0 77.68 0L77.68 0Q81.76 0 84.92 2.52ZM100.12 26.28L100.12 26.28Q94.64 26.28 91.60 21.76L91.60 21.76Q89.24 18.24 89.24 13.20L89.24 13.20Q89.24 7.36 92.36 3.60L92.36 3.60Q95.32 0 100.12 0L100.12 0Q105.60 0 108.64 4.56L108.64 4.56Q111.00 8.16 111.00 13.20L111.00 13.20Q111.00 19.04 107.88 22.76L107.88 22.76Q104.92 26.28 100.12 26.28ZM92.40 13.20L92.40 13.20Q92.40 18.24 94.60 21.08L94.60 21.08Q96.64 23.68 100.12 23.68L100.12 23.68Q104.12 23.68 106.16 20.32L106.16 20.32Q107.84 17.56 107.84 13.20L107.84 13.20Q107.84 8.16 105.64 5.28L105.64 5.28Q103.60 2.56 100.12 2.56L100.12 2.56Q96.16 2.56 94.08 6.04L94.08 6.04Q92.40 8.84 92.40 13.20Z" transform="translate(87.279 0) scale(1.615)"></path><path fill="#353434" fill-rule="nonzero" d="M2.96 32.88L0 32.88L0 7.56Q3.56 7.08 6.16 7.08L6.16 7.08Q15.12 7.08 15.12 14.76L15.12 14.76Q15.12 20 10.64 21.80L10.64 21.80L15.72 32.88L12.72 32.88L8.04 22.52L8 22.48Q7.32 22.56 6.32 22.56L6.32 22.56Q4.76 22.56 2.96 22.32L2.96 22.32L2.96 32.88ZM2.96 9.72L2.96 9.72L2.96 19.92Q4.40 20.16 6.16 20.16L6.16 20.16Q12 20.16 12 14.76L12 14.76Q12 9.44 6.16 9.44L6.16 9.44Q4.32 9.44 2.96 9.72ZM20.68 32.88L20.68 7.56L35.56 7.56L35.56 10.08L23.64 10.08L23.64 18.44L33.68 18.44L33.68 20.96L23.64 20.96L23.64 30.36L36.08 30.36L36.08 32.88L20.68 32.88ZM44.84 32.88L41.88 32.88L41.88 7.56Q45.44 7.08 48.04 7.08L48.04 7.08Q57 7.08 57 14.76L57 14.76Q57 18.64 54.48 20.72L54.48 20.72Q52.20 22.56 48.36 22.56L48.36 22.56Q46.64 22.56 44.84 22.32L44.84 22.32L44.84 32.88ZM44.84 9.72L44.84 9.72L44.84 19.92Q46.28 20.16 48.20 20.16L48.20 20.16Q53.88 20.16 53.88 14.76L53.88 14.76Q53.88 9.44 48.04 9.44L48.04 9.44Q46.20 9.44 44.84 9.72ZM62.60 22.32L62.60 7.56L65.60 7.56L65.60 23.20Q65.60 30.76 71.64 30.76L71.64 30.76Q77.64 30.76 77.64 23.20L77.64 23.20L77.64 7.56L80.68 7.56L80.68 22.32Q80.68 33.36 71.64 33.36L71.64 33.36Q62.60 33.36 62.60 22.32L62.60 22.32ZM72.28 0L75.20 0L71.80 4.48L70.12 4.48L72.28 0ZM88.36 32.84L88.36 32.84L88.36 7.56Q91.60 7.08 94.88 7.08L94.88 7.08Q99.48 7.08 101.68 9.28L101.68 9.28Q103.40 11.04 103.40 13.92L103.40 13.92Q103.40 15.92 102.18 17.40Q100.96 18.88 98.96 19.36L98.96 19.36L98.96 19.40Q101.40 19.80 102.80 21.62Q104.20 23.44 104.20 26.20L104.20 26.20Q104.20 29.84 101.36 31.72L101.36 31.72Q98.92 33.36 94.88 33.36L94.88 33.36Q91.92 33.36 88.36 32.84ZM91.32 9.72L91.32 9.72L91.32 18.24L95.48 18.24Q97.64 18.24 98.98 17.14Q100.32 16.04 100.32 14.20L100.32 14.20Q100.32 9.44 94.80 9.44L94.80 9.44Q92.68 9.44 91.32 9.72ZM95.48 20.72L91.32 20.72L91.32 30.72Q93 30.96 95.24 30.96L95.24 30.96Q101.04 30.96 101.04 26.16L101.04 26.16Q101.04 23.60 99.58 22.16Q98.12 20.72 95.48 20.72L95.48 20.72ZM122.72 32.88L109.80 32.88L109.80 7.56L112.76 7.56L112.76 30.36L122.72 30.36L122.72 32.88ZM128.52 7.56L131.48 7.56L131.48 32.88L128.52 32.88L128.52 7.56ZM155 9.60L155 9.60L153.80 11.32Q151.12 9.64 148.32 9.64L148.32 9.64Q144.48 9.64 142.28 12.80L142.28 12.80Q140.24 15.68 140.24 20.48L140.24 20.48Q140.24 25.48 142.88 28.28L142.88 28.28Q145.12 30.72 148.64 30.72L148.64 30.72Q151.52 30.72 154.12 28.84L154.12 28.84L155.32 30.64Q152.20 33.36 148.24 33.36L148.24 33.36Q142.76 33.36 139.64 29.12L139.64 29.12Q137.08 25.64 137.08 20.48L137.08 20.48Q137.08 14.72 140.20 10.80L140.20 10.80Q143.16 7.08 147.76 7.08L147.76 7.08Q151.84 7.08 155 9.60ZM157.92 32.88L167.00 7.56L170.08 7.56L179.16 32.88L176.12 32.88L174.08 26.96L163.08 26.96L161.00 32.88L157.92 32.88ZM173.20 24.48L168.52 10.88L163.88 24.48L173.20 24.48Z" transform="translate(87.279 50.418) scale(1)"></path></svg>